<svg width="307" height="87" viewBox="0 0 307 87" fill="none" xmlns="http://www.w3.org/2000/svg">
<path d="M20.352 22.304C26.24 22.304 30.528 23.584 33.216 26.144C35.9467 28.6613 37.312 32.1387 37.312 36.576C37.312 38.5813 37.0133 40.5013 36.416 42.336C35.8187 44.128 34.816 45.7493 33.408 47.2C32.0427 48.608 30.2293 49.7173 27.968 50.528C25.7067 51.3387 22.912 51.744 19.584 51.744H15.424V68H5.76V22.304H20.352ZM19.84 30.24H15.424V43.808H18.624C20.4587 43.808 22.0373 43.5733 23.36 43.104C24.6827 42.6347 25.7067 41.888 26.432 40.864C27.1573 39.84 27.52 38.5173 27.52 36.896C27.52 34.6347 26.9013 32.9707 25.664 31.904C24.4267 30.7947 22.4853 30.24 19.84 30.24ZM59.2595 22.304C63.3982 22.304 66.8115 22.816 69.4995 23.84C72.1875 24.8213 74.1928 26.336 75.5155 28.384C76.8382 30.3893 77.4995 32.928 77.4995 36C77.4995 38.0907 77.0942 39.9253 76.2835 41.504C75.5155 43.04 74.4702 44.3627 73.1475 45.472C71.8675 46.5387 70.4808 47.4133 68.9875 48.096L82.4275 68H71.6755L60.7955 50.464H55.6115V68H45.9475V22.304H59.2595ZM58.5555 30.24H55.6115V42.592H58.7475C60.8808 42.592 62.6088 42.3573 63.9315 41.888C65.2542 41.4187 66.2142 40.7147 66.8115 39.776C67.4088 38.7947 67.7075 37.6213 67.7075 36.256C67.7075 34.8053 67.3662 33.6533 66.6835 32.8C66.0435 31.904 65.0408 31.264 63.6755 30.88C62.3528 30.4533 60.6462 30.24 58.5555 30.24ZM129.67 45.088C129.67 48.6293 129.222 51.8507 128.326 54.752C127.472 57.6107 126.15 60.0853 124.358 62.176C122.608 64.2667 120.347 65.8667 117.574 66.976C114.843 68.0853 111.622 68.64 107.91 68.64C104.198 68.64 100.955 68.0853 98.1815 66.976C95.4508 65.824 93.1895 64.224 91.3975 62.176C89.6482 60.0853 88.3255 57.5893 87.4295 54.688C86.5762 51.7867 86.1495 48.5653 86.1495 45.024C86.1495 40.288 86.9175 36.1707 88.4535 32.672C90.0322 29.1733 92.4215 26.464 95.6215 24.544C98.8642 22.5813 102.982 21.6 107.974 21.6C112.923 21.6 116.998 22.5813 120.198 24.544C123.398 26.464 125.766 29.1947 127.302 32.736C128.88 36.2347 129.67 40.352 129.67 45.088ZM96.3255 45.088C96.3255 48.288 96.7308 51.04 97.5415 53.344C98.3522 55.648 99.6108 57.4187 101.318 58.656C103.024 59.8933 105.222 60.512 107.91 60.512C110.683 60.512 112.902 59.8933 114.566 58.656C116.272 57.4187 117.51 55.648 118.278 53.344C119.088 51.04 119.494 48.288 119.494 45.088C119.494 40.2667 118.598 36.4907 116.806 33.76C115.014 31.0293 112.07 29.664 107.974 29.664C105.243 29.664 103.024 30.2827 101.318 31.52C99.6108 32.7573 98.3522 34.528 97.5415 36.832C96.7308 39.136 96.3255 41.888 96.3255 45.088ZM177.023 44.704C177.023 49.824 176.042 54.112 174.079 57.568C172.116 61.024 169.258 63.6267 165.503 65.376C161.791 67.1253 157.311 68 152.063 68H139.135V22.304H153.471C158.25 22.304 162.388 23.1573 165.887 24.864C169.428 26.5707 172.159 29.088 174.079 32.416C176.042 35.7013 177.023 39.7973 177.023 44.704ZM166.975 44.96C166.975 41.5893 166.484 38.816 165.503 36.64C164.522 34.464 163.05 32.864 161.087 31.84C159.167 30.7733 156.799 30.24 153.983 30.24H148.799V60H152.959C157.695 60 161.215 58.7413 163.519 56.224C165.823 53.7067 166.975 49.952 166.975 44.96ZM223.694 51.872C223.694 55.0293 222.99 57.888 221.582 60.448C220.217 62.9653 218.126 64.9707 215.31 66.464C212.537 67.9147 209.017 68.64 204.75 68.64C198.691 68.64 194.083 67.104 190.926 64.032C187.769 60.9173 186.19 56.8213 186.19 51.744V22.304H195.854V50.272C195.854 54.0267 196.622 56.672 198.158 58.208C199.694 59.744 201.977 60.512 205.006 60.512C207.139 60.512 208.867 60.1493 210.19 59.424C211.513 58.6987 212.473 57.568 213.07 56.032C213.71 54.496 214.03 52.5547 214.03 50.208V22.304H223.694V51.872ZM254.277 29.728C252.442 29.728 250.8 30.0907 249.349 30.816C247.941 31.5413 246.746 32.5867 245.765 33.952C244.784 35.2747 244.037 36.896 243.525 38.816C243.056 40.736 242.821 42.8907 242.821 45.28C242.821 48.5227 243.205 51.296 243.973 53.6C244.784 55.8613 246.042 57.5893 247.749 58.784C249.456 59.9787 251.632 60.576 254.277 60.576C256.154 60.576 258.01 60.3627 259.845 59.936C261.722 59.5093 263.749 58.912 265.925 58.144V66.272C263.92 67.0827 261.936 67.68 259.973 68.064C258.01 68.448 255.813 68.64 253.381 68.64C248.688 68.64 244.805 67.68 241.733 65.76C238.704 63.7973 236.464 61.0667 235.013 57.568C233.562 54.0267 232.837 49.9093 232.837 45.216C232.837 41.76 233.306 38.6027 234.245 35.744C235.184 32.8427 236.549 30.3467 238.341 28.256C240.176 26.1653 242.416 24.544 245.061 23.392C247.749 22.24 250.821 21.664 254.277 21.664C256.538 21.664 258.8 21.9627 261.061 22.56C263.365 23.1147 265.562 23.8827 267.653 24.864L264.517 32.736C262.81 31.9253 261.082 31.2213 259.333 30.624C257.626 30.0267 255.941 29.728 254.277 29.728ZM293.235 68H283.571V30.368H271.155V22.304H305.651V30.368H293.235V68Z" fill="white"/>
<path d="M171.632 72.672C171.632 73.0027 171.621 73.328 171.6 73.648C171.579 73.968 171.557 74.2187 171.536 74.4H171.632C171.867 74.0373 172.181 73.7333 172.576 73.488C172.971 73.232 173.483 73.104 174.112 73.104C175.093 73.104 175.888 73.488 176.496 74.256C177.104 75.0133 177.408 76.1333 177.408 77.616C177.408 78.608 177.264 79.4453 176.976 80.128C176.699 80.8 176.309 81.3067 175.808 81.648C175.307 81.9893 174.72 82.16 174.048 82.16C173.408 82.16 172.901 82.048 172.528 81.824C172.165 81.5893 171.867 81.328 171.632 81.04H171.472L171.072 82H169.248V69.84H171.632V72.672ZM173.344 75.008C172.928 75.008 172.597 75.0933 172.352 75.264C172.107 75.4347 171.925 75.696 171.808 76.048C171.701 76.3893 171.643 76.8213 171.632 77.344V77.6C171.632 78.4427 171.755 79.0933 172 79.552C172.256 80 172.715 80.224 173.376 80.224C173.867 80.224 174.256 80 174.544 79.552C174.832 79.0933 174.976 78.4373 174.976 77.584C174.976 76.7307 174.827 76.0907 174.528 75.664C174.24 75.2267 173.845 75.008 173.344 75.008ZM177.812 73.264H180.421L182.069 78.176C182.122 78.336 182.165 78.496 182.197 78.656C182.239 78.816 182.271 78.9813 182.293 79.152C182.325 79.3227 182.346 79.504 182.357 79.696H182.405C182.437 79.4187 182.479 79.1573 182.533 78.912C182.597 78.656 182.666 78.4107 182.741 78.176L184.357 73.264H186.917L183.221 83.12C182.997 83.7173 182.703 84.2187 182.341 84.624C181.989 85.0293 181.578 85.3333 181.109 85.536C180.639 85.7387 180.127 85.84 179.573 85.84C179.306 85.84 179.071 85.824 178.868 85.792C178.677 85.7707 178.506 85.744 178.357 85.712V83.824C178.474 83.8453 178.613 83.8667 178.773 83.888C178.943 83.9093 179.119 83.92 179.301 83.92C179.631 83.92 179.914 83.8507 180.149 83.712C180.394 83.5733 180.597 83.3813 180.757 83.136C180.917 82.9013 181.045 82.6453 181.141 82.368L181.285 81.936L177.812 73.264Z" fill="white"/>
<path d="M195.846 70.576C196.881 70.576 197.734 70.704 198.406 70.96C199.078 71.2053 199.579 71.584 199.91 72.096C200.241 72.5973 200.406 73.232 200.406 74C200.406 74.5227 200.305 74.9813 200.102 75.376C199.91 75.76 199.649 76.0907 199.318 76.368C198.998 76.6347 198.651 76.8533 198.278 77.024L201.638 82H198.95L196.23 77.616H194.934V82H192.518V70.576H195.846ZM195.67 72.56H194.934V75.648H195.718C196.251 75.648 196.683 75.5893 197.014 75.472C197.345 75.3547 197.585 75.1787 197.734 74.944C197.883 74.6987 197.958 74.4053 197.958 74.064C197.958 73.7013 197.873 73.4133 197.702 73.2C197.542 72.976 197.291 72.816 196.95 72.72C196.619 72.6133 196.193 72.56 195.67 72.56ZM210.825 77.616C210.825 78.3413 210.723 78.9867 210.521 79.552C210.329 80.1173 210.046 80.5973 209.673 80.992C209.31 81.376 208.867 81.6693 208.345 81.872C207.822 82.064 207.23 82.16 206.569 82.16C205.961 82.16 205.395 82.064 204.873 81.872C204.361 81.6693 203.918 81.376 203.545 80.992C203.171 80.5973 202.878 80.1173 202.665 79.552C202.462 78.9867 202.361 78.3413 202.361 77.616C202.361 76.6453 202.531 75.8293 202.873 75.168C203.214 74.496 203.705 73.984 204.345 73.632C204.985 73.28 205.742 73.104 206.617 73.104C207.438 73.104 208.163 73.28 208.793 73.632C209.422 73.984 209.918 74.496 210.281 75.168C210.643 75.8293 210.825 76.6453 210.825 77.616ZM204.793 77.616C204.793 78.192 204.851 78.6773 204.969 79.072C205.097 79.456 205.294 79.7493 205.561 79.952C205.827 80.144 206.174 80.24 206.601 80.24C207.027 80.24 207.369 80.144 207.625 79.952C207.891 79.7493 208.083 79.456 208.201 79.072C208.329 78.6773 208.393 78.192 208.393 77.616C208.393 77.04 208.329 76.56 208.201 76.176C208.083 75.792 207.891 75.504 207.625 75.312C207.358 75.12 207.011 75.024 206.585 75.024C205.955 75.024 205.497 75.2427 205.209 75.68C204.931 76.1067 204.793 76.752 204.793 77.616ZM215.627 73.104C216.16 73.104 216.64 73.2107 217.067 73.424C217.494 73.6373 217.856 73.9573 218.155 74.384H218.219L218.411 73.264H220.427V82.016C220.427 82.848 220.262 83.5467 219.931 84.112C219.611 84.6773 219.126 85.104 218.475 85.392C217.824 85.6907 217.019 85.84 216.059 85.84C215.44 85.84 214.864 85.8027 214.331 85.728C213.808 85.6533 213.296 85.52 212.795 85.328V83.424C213.158 83.5733 213.52 83.696 213.883 83.792C214.256 83.8987 214.635 83.9733 215.019 84.016C215.414 84.0693 215.808 84.096 216.203 84.096C216.822 84.096 217.28 83.9307 217.579 83.6C217.888 83.2693 218.043 82.7733 218.043 82.112V81.936C218.043 81.7547 218.048 81.568 218.059 81.376C218.08 81.184 218.096 81.0133 218.107 80.864H218.043C217.744 81.3227 217.387 81.6533 216.971 81.856C216.555 82.0587 216.086 82.16 215.563 82.16C214.528 82.16 213.718 81.7653 213.131 80.976C212.555 80.176 212.267 79.0667 212.267 77.648C212.267 76.688 212.4 75.872 212.667 75.2C212.934 74.5173 213.318 74 213.819 73.648C214.331 73.2853 214.934 73.104 215.627 73.104ZM216.379 75.04C216.006 75.04 215.691 75.1413 215.435 75.344C215.19 75.536 215.003 75.8293 214.875 76.224C214.758 76.608 214.699 77.0933 214.699 77.68C214.699 78.5547 214.838 79.2107 215.115 79.648C215.392 80.0747 215.824 80.288 216.411 80.288C216.72 80.288 216.987 80.2507 217.211 80.176C217.435 80.0907 217.616 79.9573 217.755 79.776C217.904 79.584 218.016 79.3387 218.091 79.04C218.166 78.7413 218.203 78.3787 218.203 77.952V77.664C218.203 77.0347 218.139 76.528 218.011 76.144C217.883 75.76 217.686 75.4827 217.419 75.312C217.152 75.1307 216.806 75.04 216.379 75.04ZM230.856 77.616C230.856 78.3413 230.755 78.9867 230.552 79.552C230.36 80.1173 230.077 80.5973 229.704 80.992C229.341 81.376 228.899 81.6693 228.376 81.872C227.853 82.064 227.261 82.16 226.6 82.16C225.992 82.16 225.427 82.064 224.904 81.872C224.392 81.6693 223.949 81.376 223.576 80.992C223.203 80.5973 222.909 80.1173 222.696 79.552C222.493 78.9867 222.392 78.3413 222.392 77.616C222.392 76.6453 222.563 75.8293 222.904 75.168C223.245 74.496 223.736 73.984 224.376 73.632C225.016 73.28 225.773 73.104 226.648 73.104C227.469 73.104 228.195 73.28 228.824 73.632C229.453 73.984 229.949 74.496 230.312 75.168C230.675 75.8293 230.856 76.6453 230.856 77.616ZM224.824 77.616C224.824 78.192 224.883 78.6773 225 79.072C225.128 79.456 225.325 79.7493 225.592 79.952C225.859 80.144 226.205 80.24 226.632 80.24C227.059 80.24 227.4 80.144 227.656 79.952C227.923 79.7493 228.115 79.456 228.232 79.072C228.36 78.6773 228.424 78.192 228.424 77.616C228.424 77.04 228.36 76.56 228.232 76.176C228.115 75.792 227.923 75.504 227.656 75.312C227.389 75.12 227.043 75.024 226.616 75.024C225.987 75.024 225.528 75.2427 225.24 75.68C224.963 76.1067 224.824 76.752 224.824 77.616ZM238.75 82H231.854V80.592L235.902 75.088H232.094V73.264H238.606V74.816L234.67 80.176H238.75V82ZM242.866 72.32C242.866 72.7467 242.85 73.1573 242.818 73.552C242.797 73.9467 242.776 74.224 242.754 74.384H242.882C243.074 74.0853 243.298 73.8453 243.554 73.664C243.81 73.472 244.093 73.3333 244.402 73.248C244.722 73.152 245.058 73.104 245.41 73.104C246.04 73.104 246.589 73.216 247.058 73.44C247.528 73.664 247.89 74.0107 248.146 74.48C248.413 74.9493 248.546 75.5573 248.546 76.304V82H246.162V76.896C246.162 76.2667 246.045 75.7973 245.81 75.488C245.586 75.168 245.234 75.008 244.754 75.008C244.274 75.008 243.896 75.12 243.618 75.344C243.352 75.568 243.16 75.8933 243.042 76.32C242.925 76.7467 242.866 77.2693 242.866 77.888V82H240.482V69.84H242.866V72.32ZM253.382 73.264V82H250.998V73.264H253.382ZM252.198 69.84C252.55 69.84 252.854 69.9253 253.11 70.096C253.366 70.256 253.494 70.56 253.494 71.008C253.494 71.4453 253.366 71.7493 253.11 71.92C252.854 72.0907 252.55 72.176 252.198 72.176C251.835 72.176 251.526 72.0907 251.27 71.92C251.025 71.7493 250.902 71.4453 250.902 71.008C250.902 70.56 251.025 70.256 251.27 70.096C251.526 69.9253 251.835 69.84 252.198 69.84ZM260.833 73.104C261.772 73.104 262.524 73.36 263.089 73.872C263.654 74.3733 263.937 75.184 263.937 76.304V82H261.553V76.896C261.553 76.2667 261.441 75.7973 261.217 75.488C260.993 75.168 260.636 75.008 260.145 75.008C259.42 75.008 258.924 75.2587 258.657 75.76C258.39 76.2507 258.257 76.96 258.257 77.888V82H255.873V73.264H257.697L258.017 74.384H258.145C258.337 74.0853 258.572 73.8453 258.849 73.664C259.126 73.472 259.436 73.3333 259.777 73.248C260.118 73.152 260.47 73.104 260.833 73.104ZM274.385 70.576C275.857 70.576 276.929 70.896 277.601 71.536C278.284 72.1653 278.625 73.0347 278.625 74.144C278.625 74.6453 278.55 75.1253 278.401 75.584C278.252 76.032 278.001 76.4373 277.649 76.8C277.308 77.152 276.854 77.4293 276.289 77.632C275.724 77.8347 275.025 77.936 274.193 77.936H273.153V82H270.737V70.576H274.385ZM274.257 72.56H273.153V75.952H273.953C274.412 75.952 274.806 75.8933 275.137 75.776C275.468 75.6587 275.724 75.472 275.905 75.216C276.086 74.96 276.177 74.6293 276.177 74.224C276.177 73.6587 276.022 73.2427 275.713 72.976C275.404 72.6987 274.918 72.56 274.257 72.56ZM284.192 73.104C285.002 73.104 285.696 73.2587 286.272 73.568C286.858 73.8773 287.312 74.3253 287.632 74.912C287.952 75.4987 288.112 76.2187 288.112 77.072V78.224H282.48C282.501 78.896 282.698 79.424 283.072 79.808C283.456 80.192 283.984 80.384 284.656 80.384C285.221 80.384 285.733 80.3307 286.192 80.224C286.65 80.1067 287.125 79.9307 287.616 79.696V81.536C287.189 81.7493 286.736 81.904 286.256 82C285.786 82.1067 285.216 82.16 284.544 82.16C283.669 82.16 282.896 82 282.224 81.68C281.552 81.3493 281.024 80.8533 280.64 80.192C280.256 79.5307 280.064 78.6987 280.064 77.696C280.064 76.672 280.234 75.824 280.576 75.152C280.928 74.4693 281.413 73.9573 282.032 73.616C282.65 73.2747 283.37 73.104 284.192 73.104ZM284.208 74.8C283.749 74.8 283.365 74.9493 283.056 75.248C282.757 75.5467 282.581 76.0107 282.528 76.64H285.872C285.872 76.288 285.808 75.9733 285.68 75.696C285.562 75.4187 285.381 75.2 285.136 75.04C284.89 74.88 284.581 74.8 284.208 74.8ZM293.725 80.256C293.992 80.256 294.248 80.2293 294.493 80.176C294.738 80.1227 294.984 80.0587 295.229 79.984V81.76C294.973 81.8667 294.653 81.9573 294.269 82.032C293.896 82.1173 293.485 82.16 293.037 82.16C292.514 82.16 292.045 82.0747 291.629 81.904C291.224 81.7333 290.898 81.44 290.653 81.024C290.418 80.5973 290.301 80.0107 290.301 79.264V75.056H289.165V74.048L290.477 73.248L291.165 71.408H292.685V73.264H295.133V75.056H292.685V79.264C292.685 79.5947 292.781 79.8453 292.973 80.016C293.165 80.176 293.416 80.256 293.725 80.256ZM301.862 73.104C301.98 73.104 302.118 73.1093 302.278 73.12C302.438 73.1307 302.566 73.1467 302.662 73.168L302.486 75.408C302.412 75.3867 302.3 75.3707 302.15 75.36C302.012 75.3387 301.889 75.328 301.782 75.328C301.473 75.328 301.174 75.3707 300.886 75.456C300.598 75.5307 300.337 75.6533 300.102 75.824C299.878 75.9947 299.697 76.224 299.558 76.512C299.43 76.7893 299.366 77.136 299.366 77.552V82H296.982V73.264H298.79L299.142 74.736H299.254C299.425 74.4373 299.638 74.1653 299.894 73.92C300.15 73.6747 300.444 73.4773 300.774 73.328C301.116 73.1787 301.478 73.104 301.862 73.104Z" fill="#8BFFE3"/>
</svg>
