<svg width="1109" height="95" viewBox="0 0 1109 95" fill="none" xmlns="http://www.w3.org/2000/svg">
<path d="M27.144 1.60799C35.4213 1.60799 42.248 2.63199 47.624 4.67999C53 6.64266 57.0107 9.67199 59.656 13.768C62.3013 17.7787 63.624 22.856 63.624 29C63.624 33.1813 62.8133 36.8507 61.192 40.008C59.656 43.08 57.5653 45.7253 54.92 47.944C52.36 50.0773 49.5867 51.8267 46.6 53.192L73.48 93H51.976L30.216 57.928H19.848V93H0.52V1.60799H27.144ZM25.736 17.48H19.848V42.184H26.12C30.3867 42.184 33.8427 41.7147 36.488 40.776C39.1333 39.8373 41.0533 38.4293 42.248 36.552C43.4427 34.5893 44.04 32.2427 44.04 29.512C44.04 26.6107 43.3573 24.3067 41.992 22.6C40.712 20.808 38.7067 19.528 35.976 18.76C33.3307 17.9067 29.9173 17.48 25.736 17.48ZM167.964 47.176C167.964 54.2587 167.068 60.7013 165.276 66.504C163.569 72.2213 160.924 77.1707 157.34 81.352C153.841 85.5333 149.319 88.7333 143.772 90.952C138.311 93.1707 131.868 94.28 124.444 94.28C117.02 94.28 110.535 93.1707 104.988 90.952C99.5267 88.648 95.004 85.448 91.42 81.352C87.9213 77.1707 85.276 72.1787 83.484 66.376C81.7773 60.5733 80.924 54.1307 80.924 47.048C80.924 37.576 82.46 29.3413 85.532 22.344C88.6893 15.3467 93.468 9.928 99.868 6.088C106.353 2.16266 114.588 0.199997 124.572 0.199997C134.471 0.199997 142.62 2.16266 149.02 6.088C155.42 9.928 160.156 15.3893 163.228 22.472C166.385 29.4693 167.964 37.704 167.964 47.176ZM101.276 47.176C101.276 53.576 102.087 59.08 103.708 63.688C105.329 68.296 107.847 71.8373 111.26 74.312C114.673 76.7867 119.068 78.024 124.444 78.024C129.991 78.024 134.428 76.7867 137.756 74.312C141.169 71.8373 143.644 68.296 145.18 63.688C146.801 59.08 147.612 53.576 147.612 47.176C147.612 37.5333 145.82 29.9813 142.236 24.52C138.652 19.0587 132.764 16.328 124.572 16.328C119.111 16.328 114.673 17.5653 111.26 20.04C107.847 22.5147 105.329 26.056 103.708 30.664C102.087 35.272 101.276 40.776 101.276 47.176ZM221.583 41.672H257.807V89.032C253.028 90.6533 248.036 91.9333 242.831 92.872C237.711 93.8107 231.866 94.28 225.295 94.28C216.25 94.28 208.527 92.488 202.127 88.904C195.812 85.32 190.991 80.0293 187.663 73.032C184.42 66.0347 182.799 57.416 182.799 47.176C182.799 37.6187 184.634 29.3413 188.303 22.344C192.058 15.3467 197.476 9.928 204.559 6.088C211.642 2.248 220.303 0.327995 230.543 0.327995C235.407 0.327995 240.186 0.839996 244.879 1.864C249.572 2.888 253.839 4.25333 257.679 5.96L251.279 21.448C248.463 19.9973 245.263 18.8027 241.679 17.864C238.095 16.9253 234.34 16.456 230.415 16.456C224.783 16.456 219.876 17.736 215.695 20.296C211.599 22.856 208.399 26.4827 206.095 31.176C203.876 35.784 202.767 41.2453 202.767 47.56C202.767 53.5333 203.578 58.824 205.199 63.432C206.82 68.04 209.38 71.6667 212.879 74.312C216.378 76.872 220.943 78.152 226.575 78.152C228.452 78.152 230.074 78.1093 231.439 78.024C232.89 77.8533 234.212 77.6827 235.407 77.512C236.602 77.256 237.754 77.0427 238.863 76.872V57.8H221.583V41.672ZM362.464 47.176C362.464 54.2587 361.568 60.7013 359.776 66.504C358.069 72.2213 355.424 77.1707 351.84 81.352C348.341 85.5333 343.819 88.7333 338.272 90.952C332.811 93.1707 326.368 94.28 318.944 94.28C311.52 94.28 305.035 93.1707 299.488 90.952C294.027 88.648 289.504 85.448 285.92 81.352C282.421 77.1707 279.776 72.1787 277.984 66.376C276.277 60.5733 275.424 54.1307 275.424 47.048C275.424 37.576 276.96 29.3413 280.032 22.344C283.189 15.3467 287.968 9.928 294.368 6.088C300.853 2.16266 309.088 0.199997 319.072 0.199997C328.971 0.199997 337.12 2.16266 343.52 6.088C349.92 9.928 354.656 15.3893 357.728 22.472C360.885 29.4693 362.464 37.704 362.464 47.176ZM295.776 47.176C295.776 53.576 296.587 59.08 298.208 63.688C299.829 68.296 302.347 71.8373 305.76 74.312C309.173 76.7867 313.568 78.024 318.944 78.024C324.491 78.024 328.928 76.7867 332.256 74.312C335.669 71.8373 338.144 68.296 339.68 63.688C341.301 59.08 342.112 53.576 342.112 47.176C342.112 37.5333 340.32 29.9813 336.736 24.52C333.152 19.0587 327.264 16.328 319.072 16.328C313.611 16.328 309.173 17.5653 305.76 20.04C302.347 22.5147 299.829 26.056 298.208 30.664C296.587 35.272 295.776 40.776 295.776 47.176ZM439.665 93H371.697V80.456L415.473 17.608H372.849V1.60799H438.513V14.152L394.737 77H439.665V93ZM529.15 93H509.822V53.576H473.598V93H454.27V1.60799H473.598V37.448H509.822V1.60799H529.15V93ZM586.321 93H544.721V81.992L555.857 76.872V17.736L544.721 12.616V1.60799H586.321V12.616L575.185 17.736V76.872L586.321 81.992V93ZM682.919 93H658.343L618.535 23.88H618.023C618.108 26.0133 618.194 28.1893 618.279 30.408C618.364 32.5413 618.45 34.7173 618.535 36.936C618.706 39.0693 618.834 41.2453 618.919 43.464C619.004 45.5973 619.09 47.7733 619.175 49.992V93H601.895V1.60799H626.343L666.023 70.088H666.407C666.322 67.9547 666.236 65.864 666.151 63.816C666.066 61.6827 665.98 59.592 665.895 57.544C665.895 55.4107 665.852 53.32 665.767 51.272C665.682 49.1387 665.596 47.0053 665.511 44.872V1.60799H682.919V93ZM768.454 1.60799C780.23 1.60799 788.806 4.16799 794.182 9.28799C799.643 14.3227 802.374 21.2773 802.374 30.152C802.374 34.1627 801.777 38.0027 800.582 41.672C799.387 45.256 797.382 48.4987 794.566 51.4C791.835 54.216 788.209 56.4347 783.686 58.056C779.163 59.6773 773.574 60.488 766.918 60.488H758.598V93H739.27V1.60799H768.454ZM767.43 17.48H758.598V44.616H764.998C768.667 44.616 771.825 44.1467 774.47 43.208C777.115 42.2693 779.163 40.776 780.614 38.728C782.065 36.68 782.79 34.0347 782.79 30.792C782.79 26.2693 781.553 22.9413 779.078 20.808C776.603 18.5893 772.721 17.48 767.43 17.48ZM872.253 93H819.645V1.60799H872.253V17.48H838.973V37.576H869.949V53.448H838.973V77H872.253V93ZM926.47 93H907.142V17.736H882.31V1.60799H951.302V17.736H926.47V93ZM992.019 1.60799C1000.3 1.60799 1007.12 2.63199 1012.5 4.67999C1017.88 6.64266 1021.89 9.67199 1024.53 13.768C1027.18 17.7787 1028.5 22.856 1028.5 29C1028.5 33.1813 1027.69 36.8507 1026.07 40.008C1024.53 43.08 1022.44 45.7253 1019.8 47.944C1017.24 50.0773 1014.46 51.8267 1011.48 53.192L1038.36 93H1016.85L995.091 57.928H984.723V93H965.395V1.60799H992.019ZM990.611 17.48H984.723V42.184H990.995C995.262 42.184 998.718 41.7147 1001.36 40.776C1004.01 39.8373 1005.93 38.4293 1007.12 36.552C1008.32 34.5893 1008.92 32.2427 1008.92 29.512C1008.92 26.6107 1008.23 24.3067 1006.87 22.6C1005.59 20.808 1003.58 19.528 1000.85 18.76C998.206 17.9067 994.792 17.48 990.611 17.48ZM1075.47 66.504V50.888H1109V66.504H1075.47Z" fill="white"/>
</svg>
